<?xml version="1.0" standalone="no"?>
<!DOCTYPE svg PUBLIC "-//W3C//DTD SVG 20010904//EN"
 "http://www.w3.org/TR/2001/REC-SVG-20010904/DTD/svg10.dtd">
<svg version="1.0" xmlns="http://www.w3.org/2000/svg"
 width="512.000000pt" height="512.000000pt" viewBox="0 0 512.000000 512.000000"
 preserveAspectRatio="xMidYMid meet">

<g transform="translate(0.000000,512.000000) scale(0.100000,-0.100000)"
fill="#000000" stroke="none">
<path d="M2420 4539 c-83 -10 -212 -40 -225 -51 -5 -4 -16 -8 -25 -8 -21 0
-155 -66 -207 -102 -39 -27 -59 -68 -33 -68 6 0 10 -7 10 -15 0 -8 5 -15 10
-15 6 0 10 -5 10 -11 0 -6 14 -30 30 -54 17 -24 30 -48 30 -54 0 -6 4 -11 9
-11 5 0 14 -12 20 -27 6 -16 20 -39 30 -52 17 -22 20 -23 50 -10 17 8 31 17
31 21 0 5 9 8 20 8 11 0 20 5 20 10 0 6 11 10 23 10 13 0 27 3 31 7 14 14 83
33 161 44 219 30 445 -46 600 -205 125 -126 179 -222 232 -406 11 -36 17 -106
19 -204 2 -82 5 -151 8 -153 2 -3 38 1 80 7 105 16 321 -11 425 -52 99 -40
185 -83 231 -117 59 -44 71 -54 127 -111 148 -149 221 -332 210 -530 -7 -120
-30 -245 -48 -256 -5 -3 -9 -12 -9 -20 0 -16 -40 -106 -51 -114 -3 -3 -13 -19
-22 -36 -18 -36 -158 -184 -174 -184 -5 0 -17 -8 -26 -18 -14 -15 -100 -62
-152 -82 -84 -33 -224 -47 -330 -34 -49 6 -103 16 -120 21 l-30 9 -2 560 c-1
307 -2 566 -2 575 -1 17 -97 69 -126 69 -8 0 -15 5 -15 10 0 6 -9 10 -20 10
-11 0 -28 4 -38 9 -9 6 -49 22 -89 37 l-71 26 -39 -28 c-21 -16 -40 -31 -43
-34 -3 -3 -27 -24 -55 -45 -27 -22 -52 -42 -55 -45 -3 -3 -34 -27 -70 -55 -70
-54 -96 -74 -114 -90 -6 -6 -33 -28 -61 -50 -92 -73 -90 -67 -35 -159 22 -36
40 -70 40 -76 0 -5 5 -10 10 -10 6 0 10 -7 10 -15 0 -8 5 -15 10 -15 6 0 10
-5 10 -10 0 -6 11 -28 25 -50 23 -37 28 -39 48 -29 12 7 24 15 27 18 3 4 21
18 40 31 19 13 37 27 40 30 3 3 23 19 45 35 22 17 42 32 45 35 9 9 84 66 99
74 8 5 17 3 22 -5 5 -8 9 -216 9 -462 0 -398 2 -453 17 -484 20 -42 160 -193
179 -193 8 0 14 -4 14 -9 0 -8 89 -55 157 -82 148 -60 432 -31 615 62 10 5 25
9 33 9 8 0 15 3 15 8 0 4 15 13 33 21 97 42 263 174 347 276 31 38 90 133 90
146 0 5 5 9 10 9 6 0 10 4 10 10 0 5 13 37 29 72 76 169 111 340 111 546 0
125 -24 294 -50 357 -4 11 -13 36 -20 55 -29 85 -45 119 -92 199 -21 34 -38
67 -38 72 0 5 -4 9 -8 9 -5 0 -13 8 -18 19 -20 41 -81 110 -176 198 -49 45
-179 133 -197 133 -6 0 -11 3 -11 8 0 4 -15 13 -32 21 -18 7 -52 21 -74 32
-23 10 -55 21 -70 25 -16 4 -33 10 -39 14 -5 4 -28 11 -50 14 -117 19 -113 17
-134 76 -46 123 -151 321 -191 360 -3 3 -29 34 -57 70 -56 72 -152 165 -229
222 -27 21 -54 42 -61 48 -7 5 -15 10 -18 10 -4 0 -25 13 -48 28 -48 33 -155
84 -222 107 -61 21 -170 45 -245 54 -93 12 -97 12 -190 0z"/>
<path d="M1820 4103 c0 -4 -28 -38 -63 -74 -34 -37 -79 -87 -101 -110 -21 -24
-69 -76 -106 -114 l-68 -70 -7 -1053 c-5 -696 -11 -1054 -18 -1059 -5 -3 -54
-6 -107 -6 -92 1 -173 16 -222 44 -10 5 -25 9 -33 9 -8 0 -15 5 -15 10 0 6 -5
10 -10 10 -22 0 -122 72 -179 128 -69 67 -129 157 -161 239 -12 32 -26 67 -30
78 -19 46 -24 88 -24 230 0 89 5 168 13 195 7 25 15 57 18 73 3 15 9 27 14 27
5 0 9 9 9 19 0 17 36 97 50 111 3 3 12 17 20 31 54 96 175 212 270 261 25 13
47 26 48 31 2 4 12 7 22 7 10 0 21 3 24 8 2 4 34 16 70 27 l66 20 0 203 0 204
-52 -5 c-79 -8 -131 -17 -153 -26 -11 -5 -54 -21 -95 -36 -77 -27 -121 -46
-130 -55 -3 -3 -21 -14 -40 -24 -139 -77 -314 -263 -371 -393 -8 -18 -17 -33
-21 -33 -5 0 -8 -5 -8 -10 0 -6 -9 -29 -19 -53 -19 -40 -52 -142 -71 -217 -25
-103 -34 -190 -34 -340 0 -136 4 -181 23 -255 12 -49 26 -99 31 -110 4 -11 13
-36 20 -55 23 -66 26 -75 60 -145 32 -66 88 -164 100 -175 3 -3 22 -27 42 -55
58 -79 188 -196 268 -241 19 -10 37 -21 40 -24 20 -20 241 -100 277 -100 12 0
24 -4 27 -9 3 -4 27 -11 53 -15 27 -3 77 -11 113 -18 74 -13 458 -17 535 -5
78 13 135 29 135 38 0 5 -5 9 -11 9 -19 0 -95 90 -131 154 l-33 61 -3 444 c-2
285 0 447 7 454 12 12 41 -14 41 -37 0 -9 5 -16 10 -16 6 0 10 -5 10 -10 0 -6
5 -16 10 -23 6 -7 31 -46 57 -87 92 -150 146 -236 168 -270 105 -163 135 -211
135 -219 0 -5 3 -11 8 -13 9 -4 72 -107 72 -118 0 -5 4 -10 9 -12 7 -3 65 -93
113 -178 11 -19 23 -37 27 -40 3 -3 12 -16 19 -30 33 -63 35 -63 155 -71 231
-15 367 -9 329 15 -7 4 -98 148 -165 261 -7 11 -19 31 -28 45 -9 14 -26 41
-37 61 -11 20 -26 47 -34 60 -7 13 -16 26 -19 29 -4 3 -16 21 -27 41 -42 76
-47 84 -52 89 -3 3 -12 19 -20 35 -8 17 -18 32 -21 35 -3 3 -21 33 -39 68 -19
34 -37 62 -42 62 -4 0 -8 4 -8 9 0 12 -63 115 -72 119 -5 2 -8 7 -8 12 0 8
-94 164 -239 398 -28 46 -51 88 -51 93 0 5 -4 9 -10 9 -5 0 -10 4 -10 10 0 5
-13 31 -30 57 -16 26 -30 52 -30 57 0 6 103 114 229 241 126 126 333 334 460
462 127 128 231 237 231 243 0 6 -34 10 -88 10 -49 0 -142 3 -208 6 l-119 6
-47 -43 c-25 -24 -83 -78 -128 -119 -45 -41 -99 -91 -120 -110 -20 -19 -49
-44 -63 -55 -22 -18 -146 -130 -248 -225 -77 -72 -110 -100 -118 -100 -14 0
-21 209 -21 612 0 247 -4 389 -10 393 -5 3 -10 3 -10 -2z"/>
<path d="M2315 887 c-41 -25 -50 -41 -49 -83 1 -49 12 -63 81 -98 58 -29 74
-58 47 -87 -20 -22 -58 -24 -94 -4 -35 19 -58 1 -34 -26 10 -11 25 -19 34 -19
9 0 21 -5 27 -11 9 -9 23 -7 54 5 54 22 68 41 69 91 0 44 -14 59 -93 102 -22
12 -44 27 -47 34 -22 34 31 80 68 60 29 -15 52 -14 52 3 0 16 -53 46 -79 45
-9 0 -25 -6 -36 -12z"/>
<path d="M1490 729 c0 -147 1 -160 18 -157 15 3 17 19 20 138 3 148 -1 180
-23 180 -13 0 -15 -25 -15 -161z"/>
<path d="M1792 882 c-9 -6 -12 -45 -10 -158 3 -148 3 -149 27 -152 l24 -4 -5
111 c-3 77 -1 110 6 108 6 -2 35 -51 65 -110 45 -92 56 -107 77 -107 l25 0 -3
157 c-3 141 -5 158 -20 161 -16 3 -18 -7 -18 -112 0 -64 -3 -116 -7 -116 -5 1
-33 51 -63 113 -53 107 -70 127 -98 109z"/>
<path d="M2684 864 c-4 -15 -4 -73 -1 -131 7 -118 22 -150 80 -171 48 -17 98
4 121 52 23 48 20 271 -4 271 -12 0 -15 -19 -17 -105 -2 -58 -5 -115 -8 -127
-12 -52 -70 -70 -103 -33 -13 16 -18 46 -22 143 -4 105 -7 122 -22 125 -12 2
-19 -5 -24 -24z"/>
<path d="M3160 731 c0 -154 1 -161 20 -161 18 0 20 7 20 59 0 94 44 88 90 -14
16 -36 26 -45 45 -45 23 0 35 14 18 22 -5 2 -18 25 -31 51 l-22 49 24 29 c44
52 46 93 6 139 -17 19 -32 24 -95 28 l-75 5 0 -162z m134 103 c39 -38 9 -96
-50 -98 l-39 -1 -3 44 c-2 24 -1 50 2 57 7 19 71 18 90 -2z"/>
<path d="M3600 730 l0 -160 86 0 c76 0 85 2 82 18 -2 13 -15 18 -60 20 -63 3
-75 17 -63 72 6 26 11 29 53 32 35 2 48 7 50 21 3 14 -4 17 -46 17 -48 0 -51
2 -57 29 -11 50 8 70 68 73 38 2 52 7 52 18 0 12 -17 16 -82 18 l-83 3 0 -161z"/>
</g>
</svg>
